# AST/ASF file generated using VICON BodyLanguage
# -----------------------------------------------
:version 1.10
:name VICON
:units
  mass 1.0
  length 0.45
  angle deg
:documentation
   .ast/.asf automatically generated from VICON data using
   VICON BodyBuilder and BodyLanguage model FoxedUp or BRILLIANT.MOD
:root
   order TX TY TZ RX RY RZ
   axis XYZ
   position 0 0 0  
   orientation 0 0 0 
:bonedata
  begin
     id 1 
     name lhipjoint
     direction 0.584852 -0.759097 0.285867 
     length 2.43633 
     axis 0 0 0  XYZ
  end
  begin
     id 2 
     name lfemur
     direction 0.34202 -0.939693 0  
     length 7.14704  
     axis 0 0 20  XYZ
    dof rx ry rz
    limits (-160.0 20.0)
           (-70.0 70.0)
           (-60.0 70.0)
  end
  begin
     id 3 
     name ltibia
     direction 0.342022 -0.939692 0   
     length 7.68483   
     axis 0 0 20   XYZ
    dof rx
    limits (-10.0 170.0)
  end
  begin
     id 4 
     name lfoot
     direction 0.0999605 -0.274639 0.956337   
     length 2.40452   
     axis -90 7.62852e-016 20   XYZ
    dof rx rz
    limits (-45.0 90.0)
           (-70.0 20.0)
  end
  begin
     id 5 
     name ltoes
     direction 1.53468e-011 -4.21881e-011 1   
     length 1.19837   
     axis -90 7.62852e-016 20   XYZ
    dof rx
    limits (-90.0 20.0)
  end
  begin
     id 6 
     name rhipjoint
     direction -0.569886 -0.769002 0.289597   
     length 2.40495  
     axis 0 0 0  XYZ 
  end
  begin
     id 7 
     name rfemur
     direction -0.34202 -0.939693 0   
     length 7.45086   
     axis 0 0 -20   XYZ
    dof rx ry rz
    limits (-160.0 20.0)
           (-70.0 70.0)
           (-70.0 60.0)
  end
  begin
     id 8 
     name rtibia
     direction -0.34202 -0.939693 0   
     length 7.76831   
     axis 0 0 -20   XYZ
    dof rx
    limits (-10.0 170.0)
 end
 begin
     id 9 
     name rfoot
     direction -0.0798572 -0.219406 0.97236   
     length 2.35911  
     axis -90 -7.62852e-016 -20   XYZ
    dof rx rz
    limits (-45.0 90.0)
           (-20.0 70.0)
  end
  begin
     id 10 
     name rtoes
     direction -1.53469e-011 -4.21728e-011 1   
     length 1.18261   
     axis -90 -7.62852e-016 -20   XYZ
    dof rx
    limits (-90.0 20.0)
  end
  begin
     id 11 
     name lowerback
     direction 0.0242088 0.999437 0.0232389   
     length 2.1561   
     axis 0 0 0   XYZ
    dof rx ry rz
    limits (-20.0 45.0)
           (-30.0 30.0)
           (-30.0 30.0)
  end
  begin
     id 12 
     name upperback
     direction -0.0356893 0.999013 -0.0264323   
     length 2.14431   
     axis 0 0 0   XYZ
    dof rx ry rz
    limits (-20.0 45.0)
           (-30.0 30.0)
           (-30.0 30.0)
  end
  begin
     id 13 
     name thorax
     direction -0.0472163 0.998194 -0.0371284   
     length 2.16169   
     axis 0 0 0   XYZ
    dof rx ry rz
    limits (-20.0 45.0)
           (-30.0 30.0)
           (-30.0 30.0)
  end
  begin
     id 14 
     name lowerneck
     direction 0.00863244 0.999921 0.00911972   
     length 1.58651   
     axis 0 0 0   XYZ
    dof rx ry rz
    limits (-20.0 45.0)
           (-30.0 30.0)
           (-30.0 30.0)
  end
  begin
     id 15 
     name upperneck
     direction 0.149523 0.979068 -0.138086   
     length 1.57486   
     axis 0 0 0   XYZ
    dof rx ry rz
    limits (-20.0 45.0)
           (-30.0 30.0)
           (-30.0 30.0)
  end
  begin
     id 16
     name head
     direction 0.0445219 0.997708 -0.0509576  
     length 1.6019  
     axis 0 0 0   XYZ
    dof rx ry rz
    limits (-20.0 45.0)
           (-30.0 30.0)
           (-30.0 30.0)
  end
  begin
     id 17 
     name lclavicle
     direction 0.911271 0.381667 -0.154644  
     length 3.80848  
     axis 0 0 0   XYZ
    dof ry rz
    limits (-20.0 10.0)
           (0.0 20.0)
  end
  begin
     id 18 
     name lhumerus
     direction 1 -4.49003e-011 2.1308e-027   
     length 5.19069   
     axis 180 -30 -90   XYZ
    dof rx ry rz
    limits (-60.0 90.0)
           (-90.0 90.0)
           (-90.0 90.0)
  end
  begin
     id 19
     name lradius
     direction 1 -4.48914e-011 4.01554e-027   
     length 3.30016   
     axis 180 -30 -90   XYZ
    dof rx
    limits (-10.0 170.0)
  end
  begin
     id 20
     name lwrist
     direction 1 -4.49003e-011 1.1934e-026   
     length 1.65008   
     axis -8.46377e-015 90 90   XYZ
    dof ry
    limits (-180.0 0.0)
 end
  begin
     id 21 
     name lhand
     direction 1 -4.49034e-011 2.38659e-026   
     length 0.707698   
     axis -1.52313e-014 90 90   XYZ
    dof rx rz
    limits (-90.0 90.0)
           (-45.0 45.0)
  end
  begin
     id 22 
     name lfingers
     direction 1 -4.48691e-011 4.77775e-026   
     length 0.570564   
     axis -3.04623e-014 90 90   XYZ
    dof rx
    limits (0.0 90.0)
  end
  begin
     id 23
     name lthumb
     direction 0.707107 -6.34832e-011 0.707107   
     length 0.819219   
     axis -90 45 -1.62303e-014   XYZ
    dof rx rz
    limits (-45.0 45.0)
           (-45.0 45.0)
  end
  begin
     id 24 
     name rclavicle
     direction -0.815579 0.573708 -0.0754329   
     length 3.54371  
     axis 0 0 0   XYZ 
    dof ry rz
    limits (-10.0 20.0)
           (-20.0 0.0)
  end
  begin
     id 25 
     name rhumerus
     direction -1 -4.48956e-011 3.05351e-028  
     length 5.23924   
     axis 180 30 90   XYZ
    dof rx ry rz
    limits (-90.0 60.0)
           (-90.0 90.0)
           (-90.0 90.0)
  end
  begin
     id 26 
     name rradius
     direction -1 -4.49013e-011 3.53849e-027   
     length 3.32953   
     axis 180 30 90   XYZ
    dof rx
    limits (-10.0 170.0)
  end
  begin
     id 27 
     name rwrist
     direction -1 -4.48901e-011 1.19374e-026   
     length 1.66477   
     axis -8.46377e-015 -90 -90   XYZ
    dof ry
    limits (-180.0 0.0)
  end
  begin
     id 28
     name rhand
     direction -1 -4.48877e-011 2.38764e-026   
     length 0.607414   
     axis -1.52313e-014 -90 -90   XYZ
    dof rx rz
    limits (-90.0 90.0)
           (-45.0 45.0)
  end
  begin
     id 29
     name rfingers
     direction -1 -4.48882e-011 4.77521e-026   
     length 0.489712   
     axis -3.04623e-014 -90 -90   XYZ
    dof rx
    limits (0.0 90.0)
  end
  begin
     id 30
     name rthumb
     direction -0.707107 -6.34974e-011 0.707107   
     length 0.703132   
     axis -90 -45 1.62303e-014   XYZ
    dof rx rz
    limits (-45.0 45.0)
           (-45.0 45.0)
  end
:hierarchy
  begin
    root lhipjoint rhipjoint lowerback
    lhipjoint lfemur
    lfemur ltibia
    ltibia lfoot
    lfoot ltoes
    rhipjoint rfemur
    rfemur rtibia
    rtibia rfoot
    rfoot rtoes
    lowerback upperback
    upperback thorax
    thorax lowerneck lclavicle rclavicle
    lowerneck upperneck
    upperneck head
    lclavicle lhumerus
    lhumerus lradius
    lradius lwrist
    lwrist lhand lthumb
    lhand lfingers
    rclavicle rhumerus
    rhumerus rradius
    rradius rwrist
    rwrist rhand rthumb
    rhand rfingers
  end

#!OML:ASF E:\VariousWalksJay\Project 1\Capture day 1\Session 1\Actor2.ASF
:FULLY-SPECIFIED
:DEGREES
66
root 26.8298 16.6127 -22.1135 10.0467 -38.649 2.59073
lowerback 18.0562 -5.70737 5.80434
upperback 17.0849 -7.3326 -2.80948
thorax 7.69021 -3.1704 -5.43564
lowerneck 7.85676 2.56504 2.21257
upperneck -17.4746 3.60515 -1.12588
head -6.54471 1.66268 -1.00698
rclavicle 7.95139e-016 4.01545e-014
rhumerus -46.5475 19.4093 -89.0308
rradius 94.8199
rwrist 14.708
rhand -43.5061 9.9487
rfingers 7.12502
rthumb -16.3457 -19.3825
lclavicle 7.95139e-016 4.01545e-014
lhumerus 38.4435 -36.7443 47.9511
lradius 88.2854
lwrist 45.5578
lhand -34.9638 9.15741
lfingers 7.12502
lthumb -8.10987 38.9818
rfemur -54.2447 0.49212 27.9418
rtibia 26.1991
rfoot -20.072 -10.7498
rtoes -20.6833
lfemur -24.219 20.8896 -34.287
ltibia 47.5385
lfoot -25.1993 -8.65349
ltoes -3.99384
67
root 26.76 16.5998 -22.0259 10.4935 -38.7538 2.53056
lowerback 17.6973 -5.58977 5.56517
upperback 16.8892 -7.21639 -2.64594
thorax 7.69618 -3.14442 -5.16219
lowerneck 7.8441 2.58569 2.09213
upperneck -17.3677 3.60807 -1.16953
head -6.50954 1.67741 -0.999712
rclavicle 1.03368e-014 8.34896e-015
rhumerus -47.2297 19.3184 -88.9893
rradius 94.4663
rwrist 14.6943
rhand -43.6955 10.2474
rfingers 7.12502
rthumb -16.528 -19.0687
lclavicle 1.03368e-014 8.34896e-015
lhumerus 36.9793 -37.9179 50.006
lradius 88.2538
lwrist 44.2291
lhand -35.1465 8.72051
lfingers 7.12502
lthumb -8.28618 38.538
rfemur -54.3553 0.82582 27.8524
rtibia 26.2
rfoot -20.0073 -11.0862
rtoes -21.7759
lfemur -24.4341 21.1798 -34.2451
ltibia 47.8305
lfoot -25.108 -9.01699
ltoes -4.66007
68
root 26.7014 16.5952 -21.9224 10.5525 -38.4774 2.58511
lowerback 17.4732 -5.77904 5.95445
upperback 16.8545 -7.42059 -2.82809
thorax 7.68589 -3.19424 -5.56116
lowerneck 7.78973 2.61511 2.19731
upperneck -17.2566 3.6831 -1.05487
head -6.46396 1.69916 -0.983914
rclavicle 2.78299e-014 6.79844e-014
rhumerus -47.8706 19.0293 -89.3766
rradius 94.0246
rwrist 14.9379
rhand -44.0428 10.376
rfingers 7.12502
rthumb -16.8624 -18.9118
lclavicle 2.78299e-014 6.79844e-014
lhumerus 36.3083 -38.5881 50.2439
lradius 88.6009
lwrist 44.1254
lhand -34.5286 9.17776
lfingers 7.12502
lthumb -7.68984 39.0179
rfemur -54.1665 0.722213 27.5932
rtibia 26.3593
rfoot -20.2984 -11.1827
rtoes -21.2937
lfemur -24.1544 21.0469 -34.1361
ltibia 48.0921
lfoot -25.0698 -9.23261
ltoes -5.73254
69
root 26.6356 16.5727 -21.8365 10.9846 -38.5861 2.57971
lowerback 17.2588 -5.45963 5.86135
upperback 16.6637 -7.01602 -2.72169
thorax 7.64482 -3.00662 -5.45626
lowerneck 7.5405 2.38374 2.70731
upperneck -17.0696 3.40159 -1.20094
head -6.35414 1.54294 -1.08628
rclavicle 6.36111e-014 -4.53229e-014
rhumerus -48.5598 18.1335 -89.3753
rradius 93.6557
rwrist 15.0535
rhand -44.2508 10.8654
rfingers 7.12502
rthumb -17.0627 -18.4053
lclavicle 6.36111e-014 -4.53229e-014
lhumerus 36.1646 -39.6817 50.5138
lradius 88.8949
lwrist 43.9909
lhand -35.3491 8.48878
lfingers 7.12502
lthumb -8.48168 38.2984
rfemur -54.4601 0.99853 27.4654
rtibia 26.6848
rfoot -20.3133 -11.3436
rtoes -20.81
lfemur -24.3846 21.3698 -34.1849
ltibia 48.4625
lfoot -25.115 -9.39467
ltoes -6.80479
70
root 26.5755 16.5653 -21.7318 11.0619 -38.1496 2.64522
lowerback 17.2166 -5.53635 5.93987
upperback 16.552 -7.09988 -2.52944
thorax 7.53936 -3.05517 -5.27377
lowerneck 7.33501 2.28926 2.77023
upperneck -16.8567 3.24331 -1.36873
head -6.24951 1.47807 -1.13219
rclavicle 9.85972e-014 -2.38542e-014
rhumerus -49.3069 17.8698 -89.1917
rradius 93.4807
rwrist 15.1244
rhand -44.3519 11.1059
rfingers 7.12502
rthumb -17.1599 -18.1564
lclavicle 9.85972e-014 -2.38542e-014
lhumerus 35.1808 -40.437 51.8688
lradius 89.1418
lwrist 43.3502
lhand -35.9502 7.89403
lfingers 7.12502
lthumb -9.06171 37.6794
rfemur -54.4197 0.978108 27.0058
rtibia 27.1603
rfoot -20.594 -11.6894
rtoes -19.61
lfemur -24.1459 21.0577 -34.0291
ltibia 48.7988
lfoot -24.9721 -9.66583
ltoes -8.12015
